<svg xmlns="http://www.w3.org/2000/svg" xmlns:xlink="http://www.w3.org/1999/xlink" version="1.1" x="0px" y="0px" viewBox="0 0 1000 1000" enable-background="new 0 0 1000 1000" xml:space="preserve">
<g><path fill="#777" d="M40.6,191.3h918.7c16.9,0,30.7-13.8,30.7-30.9c0-17.1-13.7-30.9-30.7-30.9H40.6c-16.9,0-30.6,13.8-30.6,30.9C10,177.4,23.7,191.3,40.6,191.3L40.6,191.3z M959.3,808.7H40.6c-16.9,0-30.6,13.8-30.6,30.9c0,17.1,13.7,30.9,30.6,30.9h918.7c16.9,0,30.7-13.8,30.7-30.9C990,822.6,976.3,808.7,959.3,808.7L959.3,808.7z M959.3,469.1H40.6C23.7,469.1,10,482.9,10,500c0,17,13.7,30.9,30.6,30.9h918.7c16.9,0,30.7-13.8,30.7-30.9C990,482.9,976.3,469.1,959.3,469.1L959.3,469.1z"/></g>
</svg>